<svg width="24" height="24" viewBox="0 0 24 24" fill="none" xmlns="http://www.w3.org/2000/svg">
<path d="M18.7998 4C19.5643 5.45539 19.9836 7.20214 19.9998 9" stroke="#898989" style="stroke:#898989;stroke:color(display-p3 0.5375 0.5375 0.5375);stroke-opacity:1;" stroke-width="1.5" stroke-linecap="round" stroke-linejoin="round"/>
<path d="M9 9H9.01" stroke="#898989" style="stroke:#898989;stroke:color(display-p3 0.5375 0.5375 0.5375);stroke-opacity:1;" stroke-width="1.5" stroke-linecap="round" stroke-linejoin="round"/>
<path d="M9 16C12.866 16 16 12.866 16 9C16 5.13401 12.866 2 9 2C5.13401 2 2 5.13401 2 9C2 12.866 5.13401 16 9 16Z" stroke="#898989" style="stroke:#898989;stroke:color(display-p3 0.5375 0.5375 0.5375);stroke-opacity:1;" stroke-width="1.5" stroke-linecap="round" stroke-linejoin="round"/>
<path d="M12 16H6C4.89543 16 4 16.8954 4 18V20C4 21.1046 4.89543 22 6 22H12C13.1046 22 14 21.1046 14 20V18C14 16.8954 13.1046 16 12 16Z" stroke="#898989" style="stroke:#898989;stroke:color(display-p3 0.5375 0.5375 0.5375);stroke-opacity:1;" stroke-width="1.5" stroke-linecap="round" stroke-linejoin="round"/>
<path d="M14 19C17 19 18.6 17.4 18.6 17.4" stroke="#898989" style="stroke:#898989;stroke:color(display-p3 0.5375 0.5375 0.5375);stroke-opacity:1;" stroke-width="1.5" stroke-linecap="round" stroke-linejoin="round"/>
<path d="M20 18C21.1046 18 22 17.1046 22 16C22 14.8954 21.1046 14 20 14C18.8954 14 18 14.8954 18 16C18 17.1046 18.8954 18 20 18Z" stroke="#898989" style="stroke:#898989;stroke:color(display-p3 0.5375 0.5375 0.5375);stroke-opacity:1;" stroke-width="1.5" stroke-linecap="round" stroke-linejoin="round"/>
</svg>
