<svg width="24" height="25" viewBox="0 0 24 25" fill="none" xmlns="http://www.w3.org/2000/svg">
<path d="M20.0306 7.01936L16.2806 3.26936C16.2109 3.19974 16.1282 3.14453 16.0371 3.10689C15.9461 3.06924 15.8485 3.04991 15.75 3.04999H8.25C7.85218 3.04999 7.47064 3.20802 7.18934 3.48933C6.90804 3.77063 6.75 4.15216 6.75 4.54999V6.04999H5.25C4.85218 6.04999 4.47064 6.20802 4.18934 6.48933C3.90804 6.77063 3.75 7.15216 3.75 7.54999V21.05C3.75 21.4478 3.90804 21.8293 4.18934 22.1106C4.47064 22.392 4.85218 22.55 5.25 22.55H15.75C16.1478 22.55 16.5294 22.392 16.8107 22.1106C17.092 21.8293 17.25 21.4478 17.25 21.05V19.55H18.75C19.1478 19.55 19.5294 19.392 19.8107 19.1106C20.092 18.8293 20.25 18.4478 20.25 18.05V7.54999C20.2501 7.45147 20.2307 7.3539 20.1931 7.26285C20.1555 7.1718 20.1003 7.08907 20.0306 7.01936ZM15.75 21.05H5.25V7.54999H12.4397L15.75 10.8603V18.785C15.75 18.7906 15.75 18.7953 15.75 18.8C15.75 18.8047 15.75 18.8094 15.75 18.815V21.05ZM18.75 18.05H17.25V10.55C17.2501 10.4515 17.2307 10.3539 17.1931 10.2629C17.1555 10.1718 17.1003 10.0891 17.0306 10.0194L13.2806 6.26936C13.2109 6.19974 13.1282 6.14453 13.0371 6.10689C12.9461 6.06924 12.8485 6.04991 12.75 6.04999H8.25V4.54999H15.4397L18.75 7.8603V18.05ZM13.5 15.05C13.5 15.2489 13.421 15.4397 13.2803 15.5803C13.1397 15.721 12.9489 15.8 12.75 15.8H8.25C8.05109 15.8 7.86032 15.721 7.71967 15.5803C7.57902 15.4397 7.5 15.2489 7.5 15.05C7.5 14.8511 7.57902 14.6603 7.71967 14.5197C7.86032 14.379 8.05109 14.3 8.25 14.3H12.75C12.9489 14.3 13.1397 14.379 13.2803 14.5197C13.421 14.6603 13.5 14.8511 13.5 15.05ZM13.5 18.05C13.5 18.2489 13.421 18.4397 13.2803 18.5803C13.1397 18.721 12.9489 18.8 12.75 18.8H8.25C8.05109 18.8 7.86032 18.721 7.71967 18.5803C7.57902 18.4397 7.5 18.2489 7.5 18.05C7.5 17.8511 7.57902 17.6603 7.71967 17.5197C7.86032 17.379 8.05109 17.3 8.25 17.3H12.75C12.9489 17.3 13.1397 17.379 13.2803 17.5197C13.421 17.6603 13.5 17.8511 13.5 18.05Z" fill="white" style="fill:white;fill-opacity:1;"/>
</svg>
