<svg width="24" height="25" viewBox="0 0 24 25" fill="none" xmlns="http://www.w3.org/2000/svg">
<path d="M19.5 3.79999H17.25V3.04999C17.25 2.85108 17.171 2.66031 17.0303 2.51966C16.8897 2.37901 16.6989 2.29999 16.5 2.29999C16.3011 2.29999 16.1103 2.37901 15.9697 2.51966C15.829 2.66031 15.75 2.85108 15.75 3.04999V3.79999H8.25V3.04999C8.25 2.85108 8.17098 2.66031 8.03033 2.51966C7.88968 2.37901 7.69891 2.29999 7.5 2.29999C7.30109 2.29999 7.11032 2.37901 6.96967 2.51966C6.82902 2.66031 6.75 2.85108 6.75 3.04999V3.79999H4.5C4.10218 3.79999 3.72064 3.95802 3.43934 4.23933C3.15804 4.52063 3 4.90216 3 5.29999V20.3C3 20.6978 3.15804 21.0793 3.43934 21.3606C3.72064 21.642 4.10218 21.8 4.5 21.8H19.5C19.8978 21.8 20.2794 21.642 20.5607 21.3606C20.842 21.0793 21 20.6978 21 20.3V5.29999C21 4.90216 20.842 4.52063 20.5607 4.23933C20.2794 3.95802 19.8978 3.79999 19.5 3.79999ZM6.75 5.29999V6.04999C6.75 6.2489 6.82902 6.43967 6.96967 6.58032C7.11032 6.72097 7.30109 6.79999 7.5 6.79999C7.69891 6.79999 7.88968 6.72097 8.03033 6.58032C8.17098 6.43967 8.25 6.2489 8.25 6.04999V5.29999H15.75V6.04999C15.75 6.2489 15.829 6.43967 15.9697 6.58032C16.1103 6.72097 16.3011 6.79999 16.5 6.79999C16.6989 6.79999 16.8897 6.72097 17.0303 6.58032C17.171 6.43967 17.25 6.2489 17.25 6.04999V5.29999H19.5V8.29999H4.5V5.29999H6.75ZM19.5 20.3H4.5V9.79999H19.5V20.3Z" fill="white" style="fill:white;fill-opacity:1;"/>
</svg>
