<svg width="24" height="25" viewBox="0 0 24 25" fill="none" xmlns="http://www.w3.org/2000/svg">
<path d="M20.25 7.54999H5.25C5.05109 7.54999 4.86032 7.47097 4.71967 7.33032C4.57902 7.18967 4.5 6.9989 4.5 6.79999C4.5 6.60108 4.57902 6.41031 4.71967 6.26966C4.86032 6.12901 5.05109 6.04999 5.25 6.04999H18C18.1989 6.04999 18.3897 5.97097 18.5303 5.83032C18.671 5.68967 18.75 5.4989 18.75 5.29999C18.75 5.10108 18.671 4.91031 18.5303 4.76966C18.3897 4.62901 18.1989 4.54999 18 4.54999H5.25C4.65326 4.54999 4.08097 4.78704 3.65901 5.209C3.23705 5.63095 3 6.20325 3 6.79999V18.8C3 19.3967 3.23705 19.969 3.65901 20.391C4.08097 20.8129 4.65326 21.05 5.25 21.05H20.25C20.6478 21.05 21.0294 20.892 21.3107 20.6106C21.592 20.3293 21.75 19.9478 21.75 19.55V9.04999C21.75 8.65216 21.592 8.27063 21.3107 7.98933C21.0294 7.70802 20.6478 7.54999 20.25 7.54999ZM20.25 19.55H5.25C5.05109 19.55 4.86032 19.471 4.71967 19.3303C4.57902 19.1897 4.5 18.9989 4.5 18.8V8.92155C4.74082 9.00692 4.9945 9.05036 5.25 9.04999H20.25V19.55ZM15.75 13.925C15.75 13.7025 15.816 13.485 15.9396 13.3C16.0632 13.115 16.2389 12.9708 16.4445 12.8856C16.65 12.8005 16.8762 12.7782 17.0945 12.8216C17.3127 12.865 17.5132 12.9722 17.6705 13.1295C17.8278 13.2868 17.935 13.4873 17.9784 13.7055C18.0218 13.9237 17.9995 14.1499 17.9144 14.3555C17.8292 14.5611 17.685 14.7368 17.5 14.8604C17.315 14.984 17.0975 15.05 16.875 15.05C16.5766 15.05 16.2905 14.9315 16.0795 14.7205C15.8685 14.5095 15.75 14.2234 15.75 13.925Z" fill="white" style="fill:white;fill-opacity:1;"/>
</svg>
