<svg width="24" height="25" viewBox="0 0 24 25" fill="none" xmlns="http://www.w3.org/2000/svg">
<path d="M20.5153 10.5284L13.0153 3.45217C13.0116 3.44897 13.0082 3.44552 13.005 3.44186C12.7289 3.19073 12.369 3.05157 11.9958 3.05157C11.6225 3.05157 11.2627 3.19073 10.9866 3.44186L10.9763 3.45217L3.48469 10.5284C3.33187 10.6689 3.20989 10.8396 3.12646 11.0297C3.04303 11.2198 2.99997 11.4252 3 11.6328V20.3C3 20.6978 3.15804 21.0793 3.43934 21.3606C3.72064 21.6419 4.10218 21.8 4.5 21.8H9C9.39782 21.8 9.77936 21.6419 10.0607 21.3606C10.342 21.0793 10.5 20.6978 10.5 20.3V15.8H13.5V20.3C13.5 20.6978 13.658 21.0793 13.9393 21.3606C14.2206 21.6419 14.6022 21.8 15 21.8H19.5C19.8978 21.8 20.2794 21.6419 20.5607 21.3606C20.842 21.0793 21 20.6978 21 20.3V11.6328C21 11.4252 20.957 11.2198 20.8735 11.0297C20.7901 10.8396 20.6681 10.6689 20.5153 10.5284ZM19.5 20.3H15V15.8C15 15.4022 14.842 15.0206 14.5607 14.7393C14.2794 14.458 13.8978 14.3 13.5 14.3H10.5C10.1022 14.3 9.72064 14.458 9.43934 14.7393C9.15804 15.0206 9 15.4022 9 15.8V20.3H4.5V11.6328L4.51031 11.6234L12 4.54998L19.4906 11.6215L19.5009 11.6309L19.5 20.3Z" fill="white" style="fill:white;fill-opacity:1;"/>
</svg>
