<svg width="35" height="35" viewBox="0 0 35 35" fill="none" xmlns="http://www.w3.org/2000/svg">
<path d="M23.7406 10.7909C23.8837 10.934 23.9641 11.1281 23.9641 11.3305C23.9641 11.5329 23.8837 11.7269 23.7406 11.87L18.345 17.2656L23.7406 22.6612C23.8837 22.8043 23.9641 22.9984 23.9641 23.2008C23.9641 23.4031 23.8837 23.5972 23.7406 23.7403C23.5975 23.8834 23.4034 23.9638 23.201 23.9638C22.9986 23.9638 22.8046 23.8834 22.6615 23.7403L17.2659 18.3447L11.8703 23.7403C11.7272 23.8834 11.5331 23.9638 11.3307 23.9638C11.1284 23.9638 10.9343 23.8834 10.7912 23.7403C10.6481 23.5972 10.5677 23.4031 10.5677 23.2008C10.5677 22.9984 10.6481 22.8043 10.7912 22.6612L16.1868 17.2656L10.7912 11.87C10.6481 11.7269 10.5677 11.5329 10.5677 11.3305C10.5677 11.1281 10.6481 10.934 10.7912 10.7909C10.9343 10.6478 11.1284 10.5674 11.3307 10.5674C11.5331 10.5674 11.7272 10.6478 11.8703 10.7909L17.2659 16.1865L22.6615 10.7909C22.8046 10.6478 22.9986 10.5674 23.201 10.5674C23.4034 10.5674 23.5975 10.6478 23.7406 10.7909Z" fill="#343330" style="fill:#343330;fill:color(display-p3 0.2039 0.2000 0.1882);fill-opacity:1;"/>
</svg>
