<svg width="18" height="18" viewBox="0 0 18 18" fill="none" xmlns="http://www.w3.org/2000/svg">
<g opacity="0.8">
<path d="M11.6895 7.99275L8.727 5.03025C8.59038 4.8888 8.51479 4.69935 8.51649 4.5027C8.5182 4.30605 8.59708 4.11794 8.73614 3.97889C8.87519 3.83983 9.0633 3.76095 9.25995 3.75924C9.4566 3.75754 9.64605 3.83313 9.7875 3.96975L14.0302 8.2125C14.1001 8.28199 14.1556 8.36461 14.1934 8.45561C14.2313 8.54661 14.2508 8.64419 14.2508 8.74275C14.2508 8.84131 14.2313 8.93889 14.1934 9.02989C14.1556 9.12089 14.1001 9.20351 14.0302 9.273L9.7875 13.5157C9.71832 13.5874 9.63556 13.6445 9.54405 13.6838C9.45255 13.7231 9.35414 13.7438 9.25455 13.7447C9.15497 13.7456 9.05621 13.7266 8.96403 13.6889C8.87186 13.6512 8.78812 13.5955 8.7177 13.525C8.64728 13.4546 8.59159 13.3709 8.55388 13.2787C8.51617 13.1865 8.4972 13.0878 8.49806 12.9882C8.49893 12.8886 8.51962 12.7902 8.55892 12.6987C8.59823 12.6072 8.65537 12.5244 8.727 12.4553L11.6895 9.49275H4.5C4.30109 9.49275 4.11032 9.41373 3.96967 9.27308C3.82902 9.13243 3.75 8.94166 3.75 8.74275C3.75 8.54384 3.82902 8.35307 3.96967 8.21242C4.11032 8.07177 4.30109 7.99275 4.5 7.99275H11.6895Z" fill="white" style="fill:white;fill-opacity:1;"/>
</g>
</svg>
