<svg width="24" height="25" viewBox="0 0 24 25" fill="none" xmlns="http://www.w3.org/2000/svg">
<path d="M6.01125 14.6562C6.01379 14.707 6.00598 14.7578 5.98827 14.8055C5.97057 14.8532 5.94335 14.8968 5.90827 14.9336C5.87319 14.9704 5.83099 14.9997 5.78422 15.0198C5.73746 15.0398 5.68711 15.05 5.63625 15.05H1.5C1.33072 15.0502 1.16633 14.9932 1.03357 14.8882C0.900805 14.7832 0.807473 14.6363 0.768751 14.4715C0.744639 14.3587 0.745751 14.242 0.772006 14.1297C0.798261 14.0174 0.849011 13.9123 0.920626 13.8219C1.58232 12.9443 2.46027 12.2534 3.46875 11.8165C3.02599 11.4129 2.68641 10.909 2.47845 10.347C2.27048 9.78513 2.20019 9.18157 2.27345 8.5869C2.34671 7.99224 2.5614 7.42378 2.89954 6.92915C3.23767 6.43452 3.6894 6.02811 4.2169 5.74396C4.7444 5.45981 5.33231 5.3062 5.93138 5.29599C6.53046 5.28577 7.12326 5.41925 7.66014 5.68525C8.19702 5.95126 8.66234 6.34203 9.01714 6.82485C9.37194 7.30766 9.60588 7.86847 9.69938 8.46029C9.71145 8.53988 9.69719 8.62123 9.65878 8.69197C9.62036 8.7627 9.55989 8.81896 9.48656 8.85217C8.4463 9.33308 7.56531 10.1015 6.94754 11.0668C6.32976 12.0321 6.00099 13.1539 6 14.3C6 14.42 6 14.5381 6.01125 14.6562ZM23.0737 13.8209C22.4136 12.9444 21.5376 12.2539 20.5312 11.8165C20.974 11.4129 21.3136 10.909 21.5216 10.347C21.7295 9.78513 21.7998 9.18157 21.7265 8.5869C21.6533 7.99224 21.4386 7.42378 21.1005 6.92915C20.7623 6.43452 20.3106 6.02811 19.7831 5.74396C19.2556 5.45981 18.6677 5.3062 18.0686 5.29599C17.4695 5.28577 16.8767 5.41925 16.3399 5.68525C15.803 5.95126 15.3377 6.34203 14.9829 6.82485C14.6281 7.30766 14.3941 7.86847 14.3006 8.46029C14.2886 8.53988 14.3028 8.62123 14.3412 8.69197C14.3796 8.7627 14.4401 8.81896 14.5134 8.85217C15.5537 9.33308 16.4347 10.1015 17.0525 11.0668C17.6702 12.0321 17.999 13.1539 18 14.3C18 14.42 18 14.5381 17.9888 14.6562C17.9862 14.707 17.994 14.7578 18.0117 14.8055C18.0294 14.8532 18.0566 14.8968 18.0917 14.9336C18.1268 14.9704 18.169 14.9997 18.2158 15.0198C18.2625 15.0398 18.3129 15.05 18.3638 15.05H22.5C22.6693 15.0502 22.8337 14.9932 22.9664 14.8882C23.0992 14.7832 23.1925 14.6363 23.2312 14.4715C23.2555 14.3585 23.2544 14.2416 23.228 14.1291C23.2015 14.0165 23.1505 13.9113 23.0784 13.8209H23.0737ZM14.73 17.869C15.4768 17.2971 16.0255 16.5056 16.2992 15.6057C16.5729 14.7058 16.5577 13.7427 16.2558 12.8519C15.9538 11.9611 15.3803 11.1873 14.6159 10.6392C13.8515 10.0911 12.9345 9.7964 11.9939 9.7964C11.0533 9.7964 10.1363 10.0911 9.3719 10.6392C8.60746 11.1873 8.03398 11.9611 7.73205 12.8519C7.43011 13.7427 7.41492 14.7058 7.68859 15.6057C7.96226 16.5056 8.51105 17.2971 9.25781 17.869C7.93269 18.4432 6.82619 19.4265 6.10031 20.675C6.03448 20.789 5.99982 20.9184 5.99983 21.05C5.99984 21.1817 6.03451 21.311 6.10036 21.4251C6.1662 21.5391 6.2609 21.6337 6.37494 21.6996C6.48898 21.7654 6.61833 21.8 6.75 21.8H17.25C17.3817 21.8 17.511 21.7654 17.6251 21.6996C17.7391 21.6337 17.8338 21.5391 17.8996 21.4251C17.9655 21.311 18.0002 21.1817 18.0002 21.05C18.0002 20.9184 17.9655 20.789 17.8997 20.675C17.1723 19.4257 16.0637 18.4423 14.7366 17.869H14.73Z" fill="white" style="fill:white;fill-opacity:1;"/>
</svg>
