<svg width="44" height="53" viewBox="0 0 44 53" fill="none" xmlns="http://www.w3.org/2000/svg">
<g clip-path="url(#clip0_1_265)">
<path d="M21.5839 5.37972L23.0247 5.8698C20.7164 15.196 25.5098 21.1214 37.1642 27.6765C23.5289 26.9563 15.2089 15.0705 17.8589 5.41783C25.5825 -1.71228 30.2601 14.6034 31.7433 24.3174M31.6296 26.7133C27.6917 34.4931 22.4196 36.1346 20.9356 36.7869C23.3205 33.0538 24.9978 28.4784 25.9636 24.0418M26.6125 19.99C27.0207 16.1958 26.979 12.1555 25.9809 8.61205C25.1431 10.6966 23.4516 14.6694 23.3662 14.8508M20.6468 18.8966C16.1815 25.3893 9.85159 31.0614 1.83334 34.1845C11.8265 34.9799 20.0617 30.815 24.9563 28.1528" stroke="#FEFEFE" stroke-width="1.5" stroke-miterlimit="22.9256"/>
<path d="M16.8601 40.4052C12.6791 39.3873 9.66615 39.7045 6.04041 41.8295C11.563 44.2787 29.1356 34.9141 41.1055 32.1048C28.0431 35.7665 23.9492 46.7457 23.5289 47.6341" stroke="#FEFEFE" stroke-width="1.5" stroke-miterlimit="22.9256"/>
<path d="M2.92673 47.3038C9.53364 42.1657 19.3027 47.8321 27.4906 48.0962" stroke="#FEFEFE" stroke-width="1.5" stroke-miterlimit="22.9256"/>
<path d="M5.16743 45.9986L5.79197 41.8291" stroke="#FEFEFE" stroke-width="1.5" stroke-miterlimit="22.9256"/>
</g>
<defs>
<clipPath id="clip0_1_265">
<path d="M0 0H44V52.8H14.6667C6.56649 52.8 0 46.2335 0 38.1333V0Z" fill="white"/>
</clipPath>
</defs>
</svg>
